<svg xmlns="http://www.w3.org/2000/svg" viewBox="0 0 24 24"><path fill="currentColor" d="M13.527.099C6.955-.744.942 3.9.099 10.473c-.843 6.572 3.8 12.584 10.373 13.428c6.573.843 12.587-3.801 13.428-10.374C24.744 6.955 20.101.943 13.527.099m2.471 7.485a.855.855 0 0 0-.593.25l-4.453 4.453l-.307-.307l-.643-.643c4.389-4.376 5.18-4.418 5.996-3.753m-4.863 4.861l4.44-4.44a.62.62 0 1 1 .847.903l-4.699 4.125zm.33.694l-1.1.238l.652-.652zM9.75 11.39l.652.651l-.237 1.1zm-.094 1.118a.624.624 0 0 1 .079-.039l.146-.146l.072.072l-.2.2zm-.136.096l.029.029l-1.758 1.758a.934.934 0 0 0-.259-.209l1.988-1.578m-2.24 1.949a.624.624 0 0 1 .18.459a.62.62 0 0 1-1.239 0a.62.62 0 0 1 .62-.62a.62.62 0 0 1 .439.161m-1.313.18a.932.932 0 0 0 .318 1.392l-1.193.451a.93.93 0 0 0-.874-.567a.928.928 0 1 0 .874 1.22l1.193-.451a.93.93 0 0 0 .556.186a.93.93 0 0 0 .93-.93a.93.93 0 0 0-.186-.556l1.758-1.758a.93.93 0 0 0 .556.186a.93.93 0 0 0 .93-.93a.93.93 0 0 0-.93-.93a.93.93 0 0 0-.93.93c0 .2.063.385.17.536l-1.758 1.758a.93.93 0 0 0-.536-.17a.93.93 0 0 0-.878.633"/></svg>
